<?xml version="1.0" standalone="no"?>
<!DOCTYPE svg PUBLIC "-//W3C//DTD SVG 20010904//EN"
 "http://www.w3.org/TR/2001/REC-SVG-20010904/DTD/svg10.dtd">
<svg version="1.0" xmlns="http://www.w3.org/2000/svg"
 width="375.000000pt" height="375.000000pt" viewBox="0 0 375.000000 375.000000"
 preserveAspectRatio="xMidYMid meet">
<metadata>
Created by potrace 1.14, written by Peter Selinger 2001-2017
</metadata>
<g transform="translate(0.000000,375.000000) scale(0.100000,-0.100000)"
fill="#000000" stroke="none">
<path d="M1183 2905 c-438 -78 -776 -421 -847 -859 -13 -85 -14 -307 -2 -371
3 -16 8 -45 12 -63 9 -54 54 -183 89 -252 95 -188 258 -353 444 -448 159 -82
278 -112 471 -117 182 -5 303 14 446 71 l62 25 53 -22 c176 -70 401 -97 574
-69 103 17 122 21 190 42 364 114 644 440 701 818 2 19 7 48 10 64 11 54 5
245 -11 334 -38 221 -128 395 -285 553 -134 136 -292 226 -480 277 -79 21
-122 25 -255 28 -180 3 -287 -14 -423 -66 l-72 -28 -93 33 c-50 18 -128 40
-172 48 -98 19 -313 19 -412 2z m330 -293 l39 -7 -55 -69 c-72 -90 -120 -173
-157 -269 -60 -155 -76 -249 -73 -442 3 -248 81 -466 232 -653 28 -34 51 -64
51 -66 0 -8 -101 -18 -173 -18 -319 -1 -571 188 -666 497 -27 87 -36 154 -35
275 0 169 26 279 96 411 114 216 337 345 598 347 58 1 122 -2 143 -6z m1027
-17 c263 -83 433 -279 484 -555 7 -41 14 -84 15 -95 2 -52 0 -173 -3 -195 -2
-14 -7 -47 -11 -75 -4 -27 -18 -81 -31 -119 -85 -245 -260 -399 -519 -456 -49
-11 -220 -15 -260 -6 -11 2 -28 5 -38 5 -16 1 -12 9 21 49 52 62 122 172 157
247 100 215 122 522 55 776 -32 119 -127 296 -209 389 -17 19 -31 38 -31 42 0
12 35 15 175 13 100 -2 156 -7 195 -20z m-633 -188 c86 -94 162 -258 182 -399
15 -101 6 -301 -18 -392 -27 -102 -79 -207 -139 -281 -64 -79 -74 -84 -103
-54 -72 73 -136 179 -169 282 -36 113 -43 159 -42 302 0 189 45 344 134 471
40 58 93 114 108 114 4 0 25 -19 47 -43z"/>
</g>
</svg>
